<svg class="w-6 h-6" width="24" height="24" viewBox="0 0 24 24" fill="none" xmlns="http://www.w3.org/2000/svg"><path d="M3.29298 3.29298C3.65909 2.92686 4.2381 2.90427 4.63087 3.22462L4.70704 3.29298L7.20704 5.79298L7.2754 5.86915C7.59575 6.26192 7.57316 6.84092 7.20704 7.20704C6.84092 7.57316 6.26192 7.59575 5.86915 7.2754L5.79298 7.20704L3.29298 4.70704L3.22462 4.63087C2.90427 4.2381 2.92686 3.65909 3.29298 3.29298Z" fill="#686583" style="fill-opacity:1;"/><path d="M10.0053 4.08534C11.4749 4.07792 12.8919 4.61421 13.9857 5.58534L14.1996 5.78554L14.2689 5.86073C14.5935 6.25019 14.5766 6.82968 14.2142 7.1996C13.8517 7.56953 13.2724 7.59836 12.8764 7.28163L12.8002 7.21425L12.6576 7.08144C11.9314 6.43673 10.9906 6.08041 10.015 6.08534C8.97448 6.09069 7.97836 6.50677 7.24257 7.24257C6.50677 7.97836 6.09069 8.97448 6.08534 10.015C6.08041 10.9906 6.43673 11.9314 7.08144 12.6576L7.21425 12.8002L7.28163 12.8764C7.59836 13.2724 7.56953 13.8517 7.1996 14.2142C6.82968 14.5766 6.25019 14.5935 5.86073 14.2689L5.78554 14.1996L5.58534 13.9857C4.61421 12.8919 4.07792 11.4749 4.08534 10.0053C4.09327 8.43767 4.72003 6.93698 5.82851 5.82851C6.93698 4.72003 8.43767 4.09327 10.0053 4.08534Z" fill="#686583" style="fill-opacity:1;"/><path d="M14.3691 4.22462C14.7619 3.90427 15.3409 3.92686 15.707 4.29298C16.0731 4.65909 16.0957 5.2381 15.7754 5.63087L15.707 5.70704L5.70702 15.707C5.31649 16.0976 4.68348 16.0976 4.29295 15.707C3.90243 15.3165 3.90243 14.6835 4.29295 14.293L14.293 4.29298L14.3691 4.22462Z" fill="#686583" style="fill-opacity:1;"/><path d="M13 17.0098V17C13 16.4477 13.4477 16 14 16C14.5523 16 15 16.4477 15 17V17.0098C15 17.5621 14.5523 18.0098 14 18.0098C13.4477 18.0098 13 17.5621 13 17.0098Z" fill="#686583" style="fill-opacity:1;"/><path d="M9 16.0098V16C9 15.4477 9.44772 15 10 15C10.5523 15 11 15.4477 11 16V16.0098C11 16.5621 10.5523 17.0098 10 17.0098C9.44772 17.0098 9 16.5621 9 16.0098Z" fill="#686583" style="fill-opacity:1;"/><path d="M12 13.0098V13C12 12.4477 12.4477 12 13 12C13.5523 12 14 12.4477 14 13V13.0098C14 13.5621 13.5523 14.0098 13 14.0098C12.4477 14.0098 12 13.5621 12 13.0098Z" fill="#686583" style="fill-opacity:1;"/><path d="M15 10.0098V10C15 9.44772 15.4477 9 16 9C16.5523 9 17 9.44772 17 10V10.0098C17 10.5621 16.5523 11.0098 16 11.0098C15.4477 11.0098 15 10.5621 15 10.0098Z" fill="#686583" style="fill-opacity:1;"/><path d="M10 20.0098V20C10 19.4477 10.4477 19 11 19C11.5523 19 12 19.4477 12 20V20.0098C12 20.5621 11.5523 21.0098 11 21.0098C10.4477 21.0098 10 20.5621 10 20.0098Z" fill="#686583" style="fill-opacity:1;"/><path d="M16 14.0098V14C16 13.4477 16.4477 13 17 13C17.5523 13 18 13.4477 18 14V14.0098C18 14.5621 17.5523 15.0098 17 15.0098C16.4477 15.0098 16 14.5621 16 14.0098Z" fill="#686583" style="fill-opacity:1;"/><path d="M19 11.0098V11C19 10.4477 19.4477 10 20 10C20.5523 10 21 10.4477 21 11V11.0098C21 11.5621 20.5523 12.0098 20 12.0098C19.4477 12.0098 19 11.5621 19 11.0098Z" fill="#686583" style="fill-opacity:1;"/></svg>