<svg class="w-6 h-6" width="24" height="24" viewBox="0 0 24 24" fill="none" xmlns="http://www.w3.org/2000/svg"><path d="M14 15C14.4753 15 14.9441 15.1125 15.3672 15.3291C15.7903 15.5457 16.1556 15.8605 16.4336 16.2461C16.7115 16.6317 16.8941 17.078 16.9658 17.5479C17.0374 18.0176 16.9959 18.4975 16.8457 18.9482C16.6954 19.3992 16.4408 19.8087 16.1016 20.1416C15.7623 20.4745 15.3482 20.7215 14.8945 20.8633C14.4408 21.005 13.9597 21.0376 13.4912 20.957C13.0815 20.8865 12.6915 20.7315 12.3457 20.5029L12.2002 20.4004L12.1211 20.335C11.7483 19.9915 11.6893 19.4143 12 19C12.3108 18.5857 12.8812 18.4813 13.3154 18.7432L13.4004 18.7998L13.499 18.8652C13.6012 18.9244 13.7132 18.9652 13.8301 18.9854C13.9862 19.0122 14.1467 19.0013 14.2979 18.9541C14.449 18.9069 14.5871 18.8248 14.7002 18.7139C14.8132 18.603 14.8981 18.4666 14.9482 18.3164C14.9983 18.1662 15.0121 18.0061 14.9883 17.8496C14.9644 17.693 14.9042 17.5436 14.8115 17.415C14.7189 17.2865 14.597 17.1816 14.4561 17.1094C14.315 17.0372 14.1585 17 14 17H2C1.44772 17 1 16.5523 1 16C1 15.4477 1.44772 15 2 15H14Z" fill="#686583" style="fill-opacity:1;"/><path d="M19.8145 6.01367C20.4085 6.06725 20.9789 6.27238 21.4717 6.6084C21.9646 6.94454 22.3641 7.40096 22.6309 7.93457C22.8977 8.46816 23.0229 9.06126 22.9961 9.65723C22.9693 10.2531 22.7911 10.8324 22.4775 11.3398C22.1639 11.8473 21.7252 12.2661 21.2041 12.5566C20.7483 12.8108 20.2425 12.9599 19.7236 12.9932L19.5 13H2C1.44772 13 1 12.5523 1 12C1 11.4477 1.44772 11 2 11H19.5L19.6904 10.9883C19.8795 10.9641 20.063 10.9039 20.2305 10.8105C20.4537 10.6861 20.642 10.5065 20.7764 10.2891C20.9108 10.0716 20.9866 9.82281 20.998 9.56738C21.0095 9.31196 20.9561 9.05779 20.8418 8.8291C20.7275 8.60041 20.556 8.40481 20.3447 8.26074C20.1336 8.11681 19.8893 8.02882 19.6348 8.00586C19.3802 7.98291 19.1242 8.02602 18.8906 8.12988C18.7153 8.2079 18.5567 8.31825 18.4238 8.45508L18.2998 8.59961C17.9685 9.04139 17.3422 9.13104 16.9004 8.79981C16.4586 8.46847 16.369 7.84221 16.7002 7.40039L16.8398 7.22559C17.1778 6.83033 17.6003 6.51493 18.0771 6.30274C18.6222 6.06018 19.2203 5.9601 19.8145 6.01367Z" fill="#686583" style="fill-opacity:1;"/><path d="M10.4912 3.04297C10.9597 2.96238 11.4408 2.99499 11.8945 3.13672C12.3482 3.27847 12.7623 3.52551 13.1016 3.8584C13.4408 4.19131 13.6954 4.60085 13.8457 5.05176C13.9959 5.50255 14.0374 5.98243 13.9658 6.45215C13.8941 6.92204 13.7115 7.3683 13.4336 7.75391C13.1556 8.13954 12.7903 8.45429 12.3672 8.6709C11.9441 8.88749 11.4753 9.00001 11 9.00001H2C1.44772 9.00001 1 8.55229 1 8.00001C1 7.44772 1.44772 7.00001 2 7.00001H11C11.1585 7.00001 11.315 6.96283 11.4561 6.89063C11.597 6.81844 11.7189 6.71347 11.8115 6.58497C11.9042 6.45642 11.9644 6.30704 11.9883 6.1504C12.0121 5.99387 11.9983 5.8338 11.9482 5.6836C11.8981 5.5334 11.8132 5.39704 11.7002 5.28614C11.5871 5.17523 11.449 5.09313 11.2979 5.0459C11.1467 4.9987 10.9862 4.9878 10.8301 5.01465C10.6741 5.04155 10.527 5.10528 10.4004 5.2002L10.3154 5.25684C9.88125 5.51874 9.31076 5.41435 9 5.00001C8.66863 4.55818 8.75837 3.93099 9.2002 3.59962L9.3457 3.49708C9.69147 3.26854 10.0815 3.11347 10.4912 3.04297Z" fill="#686583" style="fill-opacity:1;"/></svg>